<svg width="426" height="364" viewBox="0 0 426 364" fill="none" xmlns="http://www.w3.org/2000/svg">
<g opacity="0.1">
<path d="M417.594 313.563C413.162 313.563 409.57 317.155 409.57 321.587C409.57 326.018 413.162 329.61 417.594 329.61C422.025 329.61 425.618 326.018 425.618 321.587C425.618 317.155 422.025 313.563 417.594 313.563Z" fill="white"/>
<path d="M341.546 313.563C337.115 313.563 333.523 317.155 333.523 321.587C333.523 326.018 337.115 329.61 341.546 329.61C345.978 329.61 349.57 326.018 349.57 321.587C349.57 317.155 345.978 313.563 341.546 313.563Z" fill="white"/>
<path d="M265.499 313.563C261.067 313.563 257.475 317.155 257.475 321.587C257.475 326.018 261.067 329.61 265.499 329.61C269.93 329.61 273.523 326.018 273.523 321.587C273.523 317.155 269.93 313.563 265.499 313.563Z" fill="white"/>
<path d="M189.452 313.563C185.02 313.563 181.428 317.155 181.428 321.587C181.428 326.018 185.02 329.61 189.452 329.61C193.883 329.61 197.475 326.018 197.475 321.587C197.475 317.155 193.883 313.563 189.452 313.563Z" fill="white"/>
<path d="M113.404 313.563C108.973 313.563 105.38 317.155 105.38 321.587C105.38 326.018 108.973 329.61 113.404 329.61C117.836 329.61 121.428 326.018 121.428 321.587C121.428 317.155 117.836 313.563 113.404 313.563Z" fill="white"/>
<path d="M37.3566 313.563C32.9252 313.563 29.3327 317.155 29.3327 321.587C29.3327 326.018 32.9252 329.61 37.3566 329.61C41.7879 329.61 45.3804 326.018 45.3804 321.587C45.3804 317.155 41.7879 313.563 37.3566 313.563Z" fill="white"/>
<path d="M417.594 235.332C413.162 235.332 409.57 238.925 409.57 243.356C409.57 247.787 413.162 251.38 417.594 251.38C422.025 251.38 425.618 247.787 425.618 243.356C425.618 238.925 422.025 235.332 417.594 235.332Z" fill="white"/>
<path d="M341.546 235.332C337.115 235.332 333.523 238.925 333.523 243.356C333.523 247.787 337.115 251.38 341.546 251.38C345.978 251.38 349.57 247.787 349.57 243.356C349.57 238.925 345.978 235.332 341.546 235.332Z" fill="white"/>
<path d="M265.499 235.332C261.067 235.332 257.475 238.925 257.475 243.356C257.475 247.787 261.067 251.38 265.499 251.38C269.93 251.38 273.523 247.787 273.523 243.356C273.523 238.925 269.93 235.332 265.499 235.332Z" fill="white"/>
<path d="M189.452 235.332C185.02 235.332 181.428 238.925 181.428 243.356C181.428 247.787 185.02 251.38 189.452 251.38C193.883 251.38 197.475 247.787 197.475 243.356C197.475 238.925 193.883 235.332 189.452 235.332Z" fill="white"/>
<path d="M113.404 235.332C108.973 235.332 105.38 238.925 105.38 243.356C105.38 247.787 108.973 251.38 113.404 251.38C117.835 251.38 121.428 247.787 121.428 243.356C121.428 238.925 117.835 235.332 113.404 235.332Z" fill="white"/>
<path d="M37.3564 235.332C32.925 235.332 29.3326 238.925 29.3326 243.356C29.3326 247.787 32.925 251.38 37.3564 251.38C41.7878 251.38 45.3802 247.787 45.3802 243.356C45.3802 238.925 41.7878 235.332 37.3564 235.332Z" fill="white"/>
<path d="M417.594 157.022C413.162 157.022 409.57 160.614 409.57 165.046C409.57 169.477 413.162 173.069 417.594 173.069C422.025 173.069 425.618 169.477 425.618 165.046C425.618 160.614 422.025 157.022 417.594 157.022Z" fill="white"/>
<path d="M341.546 157.022C337.115 157.022 333.523 160.614 333.523 165.046C333.523 169.477 337.115 173.069 341.546 173.069C345.978 173.069 349.57 169.477 349.57 165.046C349.57 160.614 345.978 157.022 341.546 157.022Z" fill="white"/>
<path d="M265.499 157.022C261.067 157.022 257.475 160.614 257.475 165.046C257.475 169.477 261.067 173.069 265.499 173.069C269.93 173.069 273.523 169.477 273.523 165.046C273.523 160.614 269.93 157.022 265.499 157.022Z" fill="white"/>
<path d="M189.452 157.022C185.02 157.022 181.428 160.614 181.428 165.046C181.428 169.477 185.02 173.069 189.452 173.069C193.883 173.069 197.475 169.477 197.475 165.046C197.475 160.614 193.883 157.022 189.452 157.022Z" fill="white"/>
<path d="M113.404 157.022C108.973 157.022 105.38 160.614 105.38 165.046C105.38 169.477 108.973 173.069 113.404 173.069C117.835 173.069 121.428 169.477 121.428 165.046C121.428 160.614 117.835 157.022 113.404 157.022Z" fill="white"/>
<path d="M37.3564 157.022C32.925 157.022 29.3326 160.614 29.3326 165.046C29.3326 169.477 32.925 173.069 37.3564 173.069C41.7878 173.069 45.3802 169.477 45.3802 165.046C45.3802 160.614 41.7878 157.022 37.3564 157.022Z" fill="white"/>
<path d="M417.594 78.7913C413.162 78.7913 409.57 82.3838 409.57 86.8152C409.57 91.2466 413.162 94.8389 417.594 94.8389C422.025 94.8389 425.618 91.2466 425.618 86.8152C425.618 82.3838 422.025 78.7913 417.594 78.7913Z" fill="white"/>
<path d="M341.546 78.7913C337.115 78.7913 333.523 82.3838 333.523 86.8152C333.523 91.2466 337.115 94.8389 341.546 94.8389C345.978 94.8389 349.57 91.2466 349.57 86.8152C349.57 82.3838 345.978 78.7913 341.546 78.7913Z" fill="white"/>
<path d="M265.499 78.7913C261.067 78.7913 257.475 82.3838 257.475 86.8152C257.475 91.2466 261.067 94.8389 265.499 94.8389C269.93 94.8389 273.523 91.2466 273.523 86.8152C273.523 82.3838 269.93 78.7913 265.499 78.7913Z" fill="white"/>
<path d="M189.452 78.7913C185.02 78.7913 181.428 82.3838 181.428 86.8152C181.428 91.2466 185.02 94.8389 189.452 94.8389C193.883 94.8389 197.475 91.2466 197.475 86.8152C197.475 82.3838 193.883 78.7913 189.452 78.7913Z" fill="white"/>
<path d="M113.404 78.7913C108.973 78.7913 105.38 82.3838 105.38 86.8152C105.38 91.2466 108.973 94.8389 113.404 94.8389C117.835 94.8389 121.428 91.2466 121.428 86.8152C121.428 82.3838 117.835 78.7913 113.404 78.7913Z" fill="white"/>
<path d="M37.3564 78.7913C32.925 78.7913 29.3326 82.3838 29.3326 86.8152C29.3326 91.2466 32.925 94.8389 37.3564 94.8389C41.7878 94.8389 45.3802 91.2466 45.3802 86.8152C45.3802 82.3838 41.7878 78.7913 37.3564 78.7913Z" fill="white"/>
<path d="M417.594 0.481535C413.162 0.481535 409.57 4.07384 409.57 8.50523C409.57 12.9366 413.162 16.5291 417.594 16.5291C422.025 16.5291 425.618 12.9366 425.618 8.50523C425.618 4.07384 422.025 0.481535 417.594 0.481535Z" fill="white"/>
<path d="M341.546 0.481535C337.115 0.481535 333.523 4.07384 333.523 8.50523C333.523 12.9366 337.115 16.5291 341.546 16.5291C345.978 16.5291 349.57 12.9366 349.57 8.50523C349.57 4.07384 345.978 0.481535 341.546 0.481535Z" fill="white"/>
<path d="M265.499 0.481535C261.067 0.481535 257.475 4.07384 257.475 8.50523C257.475 12.9366 261.067 16.5291 265.499 16.5291C269.93 16.5291 273.523 12.9366 273.523 8.50523C273.523 4.07384 269.93 0.481535 265.499 0.481535Z" fill="white"/>
<path d="M189.452 0.481535C185.02 0.481535 181.428 4.07384 181.428 8.50523C181.428 12.9366 185.02 16.5291 189.452 16.5291C193.883 16.5291 197.475 12.9366 197.475 8.50523C197.475 4.07384 193.883 0.481535 189.452 0.481535Z" fill="white"/>
<path d="M113.404 0.481535C108.973 0.481535 105.38 4.07384 105.38 8.50523C105.38 12.9366 108.973 16.5291 113.404 16.5291C117.835 16.5291 121.428 12.9366 121.428 8.50523C121.428 4.07384 117.835 0.481535 113.404 0.481535Z" fill="white"/>
<path d="M37.3564 0.481535C32.925 0.481535 29.3326 4.07384 29.3326 8.50523C29.3326 12.9366 32.925 16.5291 37.3564 16.5291C41.7878 16.5291 45.3802 12.9366 45.3802 8.50523C45.3802 4.07384 41.7878 0.481535 37.3564 0.481535Z" fill="white"/>
</g>
<path d="M324.655 363.245L276.261 102.527L199.04 183.544L188.828 46L99 140.256L170.89 279.788L241.83 205.368L324.655 363.245Z" fill="#F84D4D"/>
</svg>
