<svg width="426" height="193" viewBox="0 0 426 193" fill="none" xmlns="http://www.w3.org/2000/svg">
<path d="M417.42 183.556C414.825 183.556 412.721 185.66 412.721 188.255C412.721 190.85 414.825 192.954 417.42 192.954C420.016 192.954 422.12 190.85 422.12 188.255C422.12 185.66 420.016 183.556 417.42 183.556Z" fill="white"/>
<path d="M371.557 183.556C368.962 183.556 366.858 185.66 366.858 188.255C366.858 190.85 368.962 192.954 371.557 192.954C374.153 192.954 376.256 190.85 376.256 188.255C376.256 185.66 374.153 183.556 371.557 183.556Z" fill="white"/>
<path d="M325.739 183.556C323.144 183.556 321.04 185.66 321.04 188.255C321.04 190.85 323.144 192.954 325.739 192.954C328.335 192.954 330.439 190.85 330.439 188.255C330.439 185.66 328.335 183.556 325.739 183.556Z" fill="white"/>
<path d="M279.876 183.556C277.281 183.556 275.177 185.66 275.177 188.255C275.177 190.85 277.281 192.954 279.876 192.954C282.472 192.954 284.576 190.85 284.576 188.255C284.576 185.66 282.472 183.556 279.876 183.556Z" fill="white"/>
<path d="M234.058 183.556C231.463 183.556 229.359 185.66 229.359 188.255C229.359 190.85 231.463 192.954 234.058 192.954C236.654 192.954 238.758 190.85 238.758 188.255C238.758 185.66 236.654 183.556 234.058 183.556Z" fill="white"/>
<path d="M188.241 183.556C185.645 183.556 183.541 185.66 183.541 188.255C183.541 190.85 185.645 192.954 188.241 192.954C190.836 192.954 192.94 190.85 192.94 188.255C192.94 185.66 190.836 183.556 188.241 183.556Z" fill="white"/>
<path d="M142.378 183.556C139.782 183.556 137.678 185.66 137.678 188.255C137.678 190.85 139.782 192.954 142.378 192.954C144.973 192.954 147.077 190.85 147.077 188.255C147.077 185.66 144.973 183.556 142.378 183.556Z" fill="white"/>
<path d="M96.5602 183.556C93.9649 183.556 91.861 185.66 91.861 188.255C91.861 190.85 93.9649 192.954 96.5602 192.954C99.1556 192.954 101.26 190.85 101.26 188.255C101.26 185.66 99.1556 183.556 96.5602 183.556Z" fill="white"/>
<path d="M50.6973 183.556C48.1019 183.556 45.998 185.66 45.998 188.255C45.998 190.85 48.1019 192.954 50.6973 192.954C53.2926 192.954 55.3965 190.85 55.3965 188.255C55.3965 185.66 53.2926 183.556 50.6973 183.556Z" fill="white"/>
<path d="M4.87938 183.556C2.28406 183.556 0.180087 185.66 0.180087 188.255C0.180087 190.85 2.28406 192.954 4.87938 192.954C7.47471 192.954 9.57861 190.85 9.57861 188.255C9.57861 185.66 7.47471 183.556 4.87938 183.556Z" fill="white"/>
<path d="M417.42 137.738C414.825 137.738 412.721 139.842 412.721 142.437C412.721 145.033 414.825 147.137 417.42 147.137C420.016 147.137 422.12 145.033 422.12 142.437C422.12 139.842 420.016 137.738 417.42 137.738Z" fill="white"/>
<path d="M371.557 137.738C368.962 137.738 366.858 139.842 366.858 142.437C366.858 145.033 368.962 147.137 371.557 147.137C374.153 147.137 376.256 145.033 376.256 142.437C376.256 139.842 374.153 137.738 371.557 137.738Z" fill="white"/>
<path d="M325.739 137.738C323.144 137.738 321.04 139.842 321.04 142.437C321.04 145.033 323.144 147.137 325.739 147.137C328.335 147.137 330.439 145.033 330.439 142.437C330.439 139.842 328.335 137.738 325.739 137.738Z" fill="white"/>
<path d="M279.876 137.738C277.281 137.738 275.177 139.842 275.177 142.437C275.177 145.033 277.281 147.137 279.876 147.137C282.472 147.137 284.576 145.033 284.576 142.437C284.576 139.842 282.472 137.738 279.876 137.738Z" fill="white"/>
<path d="M234.058 137.738C231.463 137.738 229.359 139.842 229.359 142.437C229.359 145.033 231.463 147.137 234.058 147.137C236.654 147.137 238.758 145.033 238.758 142.437C238.758 139.842 236.654 137.738 234.058 137.738Z" fill="white"/>
<path d="M188.241 137.738C185.645 137.738 183.541 139.842 183.541 142.437C183.541 145.033 185.645 147.137 188.241 147.137C190.836 147.137 192.94 145.033 192.94 142.437C192.94 139.842 190.836 137.738 188.241 137.738Z" fill="white"/>
<path d="M142.378 137.738C139.782 137.738 137.678 139.842 137.678 142.437C137.678 145.033 139.782 147.137 142.378 147.137C144.973 147.137 147.077 145.033 147.077 142.437C147.077 139.842 144.973 137.738 142.378 137.738Z" fill="white"/>
<path d="M96.5602 137.738C93.9649 137.738 91.861 139.842 91.861 142.437C91.861 145.033 93.9649 147.137 96.5602 147.137C99.1556 147.137 101.26 145.033 101.26 142.437C101.26 139.842 99.1556 137.738 96.5602 137.738Z" fill="white"/>
<path d="M50.6973 137.738C48.1019 137.738 45.998 139.842 45.998 142.437C45.998 145.033 48.1019 147.137 50.6973 147.137C53.2926 147.137 55.3965 145.033 55.3965 142.437C55.3965 139.842 53.2926 137.738 50.6973 137.738Z" fill="white"/>
<path d="M4.87938 137.738C2.28406 137.738 0.180087 139.842 0.180087 142.437C0.180087 145.033 2.28406 147.137 4.87938 147.137C7.47471 147.137 9.57861 145.033 9.57861 142.437C9.57861 139.842 7.47471 137.738 4.87938 137.738Z" fill="white"/>
<path d="M417.42 91.8749C414.825 91.8749 412.721 93.9788 412.721 96.5742C412.721 99.1695 414.825 101.273 417.42 101.273C420.016 101.273 422.12 99.1695 422.12 96.5742C422.12 93.9788 420.016 91.8749 417.42 91.8749Z" fill="white"/>
<path d="M371.557 91.8749C368.962 91.8749 366.858 93.9788 366.858 96.5742C366.858 99.1695 368.962 101.273 371.557 101.273C374.153 101.273 376.256 99.1695 376.256 96.5742C376.256 93.9788 374.153 91.8749 371.557 91.8749Z" fill="white"/>
<path d="M325.739 91.8749C323.144 91.8749 321.04 93.9788 321.04 96.5742C321.04 99.1695 323.144 101.273 325.739 101.273C328.335 101.273 330.439 99.1695 330.439 96.5742C330.439 93.9788 328.335 91.8749 325.739 91.8749Z" fill="white"/>
<path d="M279.876 91.8749C277.281 91.8749 275.177 93.9788 275.177 96.5742C275.177 99.1695 277.281 101.273 279.876 101.273C282.472 101.273 284.576 99.1695 284.576 96.5742C284.576 93.9788 282.472 91.8749 279.876 91.8749Z" fill="white"/>
<path d="M234.058 91.8749C231.463 91.8749 229.359 93.9788 229.359 96.5742C229.359 99.1695 231.463 101.273 234.058 101.273C236.654 101.273 238.758 99.1695 238.758 96.5742C238.758 93.9788 236.654 91.8749 234.058 91.8749Z" fill="white"/>
<path d="M188.241 91.8749C185.645 91.8749 183.541 93.9788 183.541 96.5742C183.541 99.1695 185.645 101.273 188.241 101.273C190.836 101.273 192.94 99.1695 192.94 96.5742C192.94 93.9788 190.836 91.8749 188.241 91.8749Z" fill="white"/>
<path d="M142.378 91.8749C139.782 91.8749 137.678 93.9788 137.678 96.5742C137.678 99.1695 139.782 101.273 142.378 101.273C144.973 101.273 147.077 99.1695 147.077 96.5742C147.077 93.9788 144.973 91.8749 142.378 91.8749Z" fill="white"/>
<path d="M96.5602 91.8749C93.9649 91.8749 91.861 93.9788 91.861 96.5742C91.861 99.1695 93.9649 101.273 96.5602 101.273C99.1556 101.273 101.26 99.1695 101.26 96.5742C101.26 93.9788 99.1556 91.8749 96.5602 91.8749Z" fill="white"/>
<path d="M50.6973 91.8749C48.1019 91.8749 45.998 93.9788 45.998 96.5742C45.998 99.1695 48.1019 101.273 50.6973 101.273C53.2926 101.273 55.3965 99.1695 55.3965 96.5742C55.3965 93.9788 53.2926 91.8749 50.6973 91.8749Z" fill="white"/>
<path d="M4.87938 91.8749C2.28406 91.8749 0.180087 93.9788 0.180087 96.5742C0.180087 99.1695 2.28406 101.273 4.87938 101.273C7.47471 101.273 9.57861 99.1695 9.57861 96.5742C9.57861 93.9788 7.47471 91.8749 4.87938 91.8749Z" fill="white"/>
<path d="M417.42 46.0575C414.825 46.0575 412.721 48.1615 412.721 50.7568C412.721 53.3521 414.825 55.4561 417.42 55.4561C420.016 55.4561 422.12 53.3521 422.12 50.7568C422.12 48.1615 420.016 46.0575 417.42 46.0575Z" fill="white"/>
<path d="M371.557 46.0575C368.962 46.0575 366.858 48.1615 366.858 50.7568C366.858 53.3521 368.962 55.4561 371.557 55.4561C374.153 55.4561 376.256 53.3521 376.256 50.7568C376.256 48.1615 374.153 46.0575 371.557 46.0575Z" fill="white"/>
<path d="M325.739 46.0575C323.144 46.0575 321.04 48.1615 321.04 50.7568C321.04 53.3521 323.144 55.4561 325.739 55.4561C328.335 55.4561 330.439 53.3521 330.439 50.7568C330.439 48.1615 328.335 46.0575 325.739 46.0575Z" fill="white"/>
<path d="M279.876 46.0575C277.281 46.0575 275.177 48.1615 275.177 50.7568C275.177 53.3521 277.281 55.4561 279.876 55.4561C282.472 55.4561 284.576 53.3521 284.576 50.7568C284.576 48.1615 282.472 46.0575 279.876 46.0575Z" fill="white"/>
<path d="M234.058 46.0575C231.463 46.0575 229.359 48.1615 229.359 50.7568C229.359 53.3521 231.463 55.4561 234.058 55.4561C236.654 55.4561 238.758 53.3521 238.758 50.7568C238.758 48.1615 236.654 46.0575 234.058 46.0575Z" fill="white"/>
<path d="M188.241 46.0575C185.645 46.0575 183.541 48.1615 183.541 50.7568C183.541 53.3521 185.645 55.4561 188.241 55.4561C190.836 55.4561 192.94 53.3521 192.94 50.7568C192.94 48.1615 190.836 46.0575 188.241 46.0575Z" fill="white"/>
<path d="M142.378 46.0575C139.782 46.0575 137.678 48.1615 137.678 50.7568C137.678 53.3521 139.782 55.4561 142.378 55.4561C144.973 55.4561 147.077 53.3521 147.077 50.7568C147.077 48.1615 144.973 46.0575 142.378 46.0575Z" fill="white"/>
<path d="M96.5602 46.0575C93.9649 46.0575 91.861 48.1615 91.861 50.7568C91.861 53.3521 93.9649 55.4561 96.5602 55.4561C99.1556 55.4561 101.26 53.3521 101.26 50.7568C101.26 48.1615 99.1556 46.0575 96.5602 46.0575Z" fill="white"/>
<path d="M50.6973 46.0575C48.1019 46.0575 45.998 48.1615 45.998 50.7568C45.998 53.3521 48.1019 55.4561 50.6973 55.4561C53.2926 55.4561 55.3965 53.3521 55.3965 50.7568C55.3965 48.1615 53.2926 46.0575 50.6973 46.0575Z" fill="white"/>
<path d="M4.87938 46.0575C2.28406 46.0575 0.180087 48.1615 0.180087 50.7568C0.180087 53.3521 2.28406 55.4561 4.87938 55.4561C7.47471 55.4561 9.57861 53.3521 9.57861 50.7568C9.57861 48.1615 7.47471 46.0575 4.87938 46.0575Z" fill="white"/>
<path d="M417.42 0.193775C414.825 0.193775 412.721 2.29769 412.721 4.89302C412.721 7.48835 414.825 9.59229 417.42 9.59229C420.016 9.59229 422.12 7.48835 422.12 4.89302C422.12 2.29769 420.016 0.193775 417.42 0.193775Z" fill="white"/>
<path d="M371.557 0.193775C368.962 0.193775 366.858 2.29769 366.858 4.89302C366.858 7.48835 368.962 9.59229 371.557 9.59229C374.153 9.59229 376.256 7.48835 376.256 4.89302C376.256 2.29769 374.153 0.193775 371.557 0.193775Z" fill="white"/>
<path d="M325.739 0.193775C323.144 0.193775 321.04 2.29769 321.04 4.89302C321.04 7.48835 323.144 9.59229 325.739 9.59229C328.335 9.59229 330.439 7.48835 330.439 4.89302C330.439 2.29769 328.335 0.193775 325.739 0.193775Z" fill="white"/>
<path d="M279.876 0.193775C277.281 0.193775 275.177 2.29769 275.177 4.89302C275.177 7.48835 277.281 9.59229 279.876 9.59229C282.472 9.59229 284.576 7.48835 284.576 4.89302C284.576 2.29769 282.472 0.193775 279.876 0.193775Z" fill="white"/>
<path d="M234.058 0.193775C231.463 0.193775 229.359 2.29769 229.359 4.89302C229.359 7.48835 231.463 9.59229 234.058 9.59229C236.654 9.59229 238.758 7.48835 238.758 4.89302C238.758 2.29769 236.654 0.193775 234.058 0.193775Z" fill="white"/>
<path d="M188.241 0.193775C185.645 0.193775 183.541 2.29769 183.541 4.89302C183.541 7.48835 185.645 9.59229 188.241 9.59229C190.836 9.59229 192.94 7.48835 192.94 4.89302C192.94 2.29769 190.836 0.193775 188.241 0.193775Z" fill="white"/>
<path d="M142.378 0.193775C139.782 0.193775 137.678 2.29769 137.678 4.89302C137.678 7.48835 139.782 9.59229 142.378 9.59229C144.973 9.59229 147.077 7.48835 147.077 4.89302C147.077 2.29769 144.973 0.193775 142.378 0.193775Z" fill="white"/>
<path d="M96.5602 0.193775C93.9649 0.193775 91.861 2.29769 91.861 4.89302C91.861 7.48835 93.9649 9.59229 96.5602 9.59229C99.1556 9.59229 101.26 7.48835 101.26 4.89302C101.26 2.29769 99.1556 0.193775 96.5602 0.193775Z" fill="white"/>
<path d="M50.6973 0.193775C48.1019 0.193775 45.998 2.29769 45.998 4.89302C45.998 7.48835 48.1019 9.59229 50.6973 9.59229C53.2926 9.59229 55.3965 7.48835 55.3965 4.89302C55.3965 2.29769 53.2926 0.193775 50.6973 0.193775Z" fill="white"/>
<path d="M4.87938 0.193775C2.28406 0.193775 0.180087 2.29769 0.180087 4.89302C0.180087 7.48835 2.28406 9.59229 4.87938 9.59229C7.47471 9.59229 9.57861 7.48835 9.57861 4.89302C9.57861 2.29769 7.47471 0.193775 4.87938 0.193775Z" fill="white"/>
</svg>
