<svg width="431" height="330" viewBox="0 0 431 330" fill="none" xmlns="http://www.w3.org/2000/svg">
<g opacity="0.1">
<path d="M8.02382 16.0475C12.4552 16.0475 16.0476 12.4552 16.0476 8.02382C16.0476 3.59242 12.4552 0 8.02382 0C3.59242 0 0 3.59242 0 8.02382C0 12.4552 3.59242 16.0475 8.02382 16.0475Z" fill="white"/>
<path d="M84.0714 16.0475C88.5028 16.0475 92.095 12.4552 92.095 8.02382C92.095 3.59242 88.5028 0 84.0714 0C79.64 0 76.0476 3.59242 76.0476 8.02382C76.0476 12.4552 79.64 16.0475 84.0714 16.0475Z" fill="white"/>
<path d="M160.119 16.0475C164.55 16.0475 168.142 12.4552 168.142 8.02382C168.142 3.59242 164.55 0 160.119 0C155.687 0 152.095 3.59242 152.095 8.02382C152.095 12.4552 155.687 16.0475 160.119 16.0475Z" fill="white"/>
<path d="M236.166 16.0475C240.597 16.0475 244.19 12.4552 244.19 8.02382C244.19 3.59242 240.597 0 236.166 0C231.735 0 228.142 3.59242 228.142 8.02382C228.142 12.4552 231.735 16.0475 236.166 16.0475Z" fill="white"/>
<path d="M312.214 16.0475C316.645 16.0475 320.237 12.4552 320.237 8.02382C320.237 3.59242 316.645 0 312.214 0C307.782 0 304.19 3.59242 304.19 8.02382C304.19 12.4552 307.782 16.0475 312.214 16.0475Z" fill="white"/>
<path d="M388.261 16.0475C392.693 16.0475 396.285 12.4552 396.285 8.02382C396.285 3.59242 392.693 0 388.261 0C383.83 0 380.237 3.59242 380.237 8.02382C380.237 12.4552 383.83 16.0475 388.261 16.0475Z" fill="white"/>
<path d="M8.02394 94.278C12.4553 94.278 16.0478 90.6857 16.0478 86.2543C16.0478 81.8229 12.4553 78.2305 8.02394 78.2305C3.59254 78.2305 0.00012207 81.8229 0.00012207 86.2543C0.00012207 90.6857 3.59254 94.278 8.02394 94.278Z" fill="white"/>
<path d="M84.0715 94.278C88.5029 94.278 92.0951 90.6857 92.0951 86.2543C92.0951 81.8229 88.5029 78.2305 84.0715 78.2305C79.6402 78.2305 76.0477 81.8229 76.0477 86.2543C76.0477 90.6857 79.6402 94.278 84.0715 94.278Z" fill="white"/>
<path d="M160.119 94.278C164.55 94.278 168.143 90.6857 168.143 86.2543C168.143 81.8229 164.55 78.2305 160.119 78.2305C155.688 78.2305 152.095 81.8229 152.095 86.2543C152.095 90.6857 155.688 94.278 160.119 94.278Z" fill="white"/>
<path d="M236.166 94.278C240.598 94.278 244.19 90.6857 244.19 86.2543C244.19 81.8229 240.598 78.2305 236.166 78.2305C231.735 78.2305 228.143 81.8229 228.143 86.2543C228.143 90.6857 231.735 94.278 236.166 94.278Z" fill="white"/>
<path d="M312.214 94.278C316.645 94.278 320.237 90.6857 320.237 86.2543C320.237 81.8229 316.645 78.2305 312.214 78.2305C307.782 78.2305 304.19 81.8229 304.19 86.2543C304.19 90.6857 307.782 94.278 312.214 94.278Z" fill="white"/>
<path d="M388.261 94.278C392.693 94.278 396.285 90.6857 396.285 86.2543C396.285 81.8229 392.693 78.2305 388.261 78.2305C383.83 78.2305 380.237 81.8229 380.237 86.2543C380.237 90.6857 383.83 94.278 388.261 94.278Z" fill="white"/>
<path d="M8.02394 172.589C12.4553 172.589 16.0478 168.996 16.0478 164.565C16.0478 160.133 12.4553 156.541 8.02394 156.541C3.59254 156.541 0.00012207 160.133 0.00012207 164.565C0.00012207 168.996 3.59254 172.589 8.02394 172.589Z" fill="white"/>
<path d="M84.0715 172.589C88.5029 172.589 92.0951 168.996 92.0951 164.565C92.0951 160.133 88.5029 156.541 84.0715 156.541C79.6402 156.541 76.0477 160.133 76.0477 164.565C76.0477 168.996 79.6402 172.589 84.0715 172.589Z" fill="white"/>
<path d="M160.119 172.589C164.55 172.589 168.143 168.996 168.143 164.565C168.143 160.133 164.55 156.541 160.119 156.541C155.688 156.541 152.095 160.133 152.095 164.565C152.095 168.996 155.688 172.589 160.119 172.589Z" fill="white"/>
<path d="M236.166 172.589C240.598 172.589 244.19 168.996 244.19 164.565C244.19 160.133 240.598 156.541 236.166 156.541C231.735 156.541 228.143 160.133 228.143 164.565C228.143 168.996 231.735 172.589 236.166 172.589Z" fill="white"/>
<path d="M312.214 172.589C316.645 172.589 320.237 168.996 320.237 164.565C320.237 160.133 316.645 156.541 312.214 156.541C307.782 156.541 304.19 160.133 304.19 164.565C304.19 168.996 307.782 172.589 312.214 172.589Z" fill="white"/>
<path d="M388.261 172.589C392.693 172.589 396.285 168.996 396.285 164.565C396.285 160.133 392.693 156.541 388.261 156.541C383.83 156.541 380.237 160.133 380.237 164.565C380.237 168.996 383.83 172.589 388.261 172.589Z" fill="white"/>
<path d="M8.02394 250.819C12.4553 250.819 16.0478 247.227 16.0478 242.795C16.0478 238.364 12.4553 234.771 8.02394 234.771C3.59254 234.771 0.00012207 238.364 0.00012207 242.795C0.00012207 247.227 3.59254 250.819 8.02394 250.819Z" fill="white"/>
<path d="M84.0715 250.819C88.5029 250.819 92.0951 247.227 92.0951 242.795C92.0951 238.364 88.5029 234.771 84.0715 234.771C79.6402 234.771 76.0477 238.364 76.0477 242.795C76.0477 247.227 79.6402 250.819 84.0715 250.819Z" fill="white"/>
<path d="M160.119 250.819C164.55 250.819 168.143 247.227 168.143 242.795C168.143 238.364 164.55 234.771 160.119 234.771C155.688 234.771 152.095 238.364 152.095 242.795C152.095 247.227 155.688 250.819 160.119 250.819Z" fill="white"/>
<path d="M236.166 250.819C240.598 250.819 244.19 247.227 244.19 242.795C244.19 238.364 240.598 234.771 236.166 234.771C231.735 234.771 228.143 238.364 228.143 242.795C228.143 247.227 231.735 250.819 236.166 250.819Z" fill="white"/>
<path d="M312.214 250.819C316.645 250.819 320.237 247.227 320.237 242.795C320.237 238.364 316.645 234.771 312.214 234.771C307.782 234.771 304.19 238.364 304.19 242.795C304.19 247.227 307.782 250.819 312.214 250.819Z" fill="white"/>
<path d="M388.261 250.819C392.693 250.819 396.285 247.227 396.285 242.795C396.285 238.364 392.693 234.771 388.261 234.771C383.83 234.771 380.237 238.364 380.237 242.795C380.237 247.227 383.83 250.819 388.261 250.819Z" fill="white"/>
<path d="M8.02394 329.129C12.4553 329.129 16.0478 325.537 16.0478 321.105C16.0478 316.674 12.4553 313.081 8.02394 313.081C3.59254 313.081 0.00012207 316.674 0.00012207 321.105C0.00012207 325.537 3.59254 329.129 8.02394 329.129Z" fill="white"/>
<path d="M84.0715 329.129C88.5029 329.129 92.0951 325.537 92.0951 321.105C92.0951 316.674 88.5029 313.081 84.0715 313.081C79.6402 313.081 76.0477 316.674 76.0477 321.105C76.0477 325.537 79.6402 329.129 84.0715 329.129Z" fill="white"/>
<path d="M160.119 329.129C164.55 329.129 168.143 325.537 168.143 321.105C168.143 316.674 164.55 313.081 160.119 313.081C155.688 313.081 152.095 316.674 152.095 321.105C152.095 325.537 155.688 329.129 160.119 329.129Z" fill="white"/>
<path d="M236.166 329.129C240.598 329.129 244.19 325.537 244.19 321.105C244.19 316.674 240.598 313.081 236.166 313.081C231.735 313.081 228.143 316.674 228.143 321.105C228.143 325.537 231.735 329.129 236.166 329.129Z" fill="white"/>
<path d="M312.214 329.129C316.645 329.129 320.237 325.537 320.237 321.105C320.237 316.674 316.645 313.081 312.214 313.081C307.782 313.081 304.19 316.674 304.19 321.105C304.19 325.537 307.782 329.129 312.214 329.129Z" fill="white"/>
<path d="M388.261 329.129C392.693 329.129 396.285 325.537 396.285 321.105C396.285 316.674 392.693 313.081 388.261 313.081C383.83 313.081 380.237 316.674 380.237 321.105C380.237 325.537 383.83 329.129 388.261 329.129Z" fill="white"/>
</g>
</svg>
