<svg width="421" height="194" viewBox="0 0 421 194" fill="none" xmlns="http://www.w3.org/2000/svg">
<path d="M3.19766 10.0545C5.79299 10.0545 7.89692 7.95059 7.89692 5.35526C7.89692 2.75993 5.79299 0.656006 3.19766 0.656006C0.602332 0.656006 -1.5016 2.75993 -1.5016 5.35526C-1.5016 7.95059 0.602332 10.0545 3.19766 10.0545Z" fill="white"/>
<path d="M49.0607 10.0545C51.656 10.0545 53.76 7.95059 53.76 5.35526C53.76 2.75993 51.656 0.656006 49.0607 0.656006C46.4654 0.656006 44.3615 2.75993 44.3615 5.35526C44.3615 7.95059 46.4654 10.0545 49.0607 10.0545Z" fill="white"/>
<path d="M94.8785 10.0545C97.4739 10.0545 99.5778 7.95059 99.5778 5.35526C99.5778 2.75993 97.4739 0.656006 94.8785 0.656006C92.2832 0.656006 90.1793 2.75993 90.1793 5.35526C90.1793 7.95059 92.2832 10.0545 94.8785 10.0545Z" fill="white"/>
<path d="M140.742 10.0545C143.337 10.0545 145.441 7.95059 145.441 5.35526C145.441 2.75993 143.337 0.656006 140.742 0.656006C138.146 0.656006 136.042 2.75993 136.042 5.35526C136.042 7.95059 138.146 10.0545 140.742 10.0545Z" fill="white"/>
<path d="M186.56 10.0545C189.155 10.0545 191.259 7.95059 191.259 5.35526C191.259 2.75993 189.155 0.656006 186.56 0.656006C183.964 0.656006 181.86 2.75993 181.86 5.35526C181.86 7.95059 183.964 10.0545 186.56 10.0545Z" fill="white"/>
<path d="M232.377 10.0545C234.973 10.0545 237.077 7.95059 237.077 5.35526C237.077 2.75993 234.973 0.656006 232.377 0.656006C229.782 0.656006 227.678 2.75993 227.678 5.35526C227.678 7.95059 229.782 10.0545 232.377 10.0545Z" fill="white"/>
<path d="M278.24 10.0545C280.836 10.0545 282.94 7.95059 282.94 5.35526C282.94 2.75993 280.836 0.656006 278.24 0.656006C275.645 0.656006 273.541 2.75993 273.541 5.35526C273.541 7.95059 275.645 10.0545 278.24 10.0545Z" fill="white"/>
<path d="M324.058 10.0545C326.653 10.0545 328.757 7.95059 328.757 5.35526C328.757 2.75993 326.653 0.656006 324.058 0.656006C321.462 0.656006 319.358 2.75993 319.358 5.35526C319.358 7.95059 321.462 10.0545 324.058 10.0545Z" fill="white"/>
<path d="M369.921 10.0545C372.516 10.0545 374.62 7.95059 374.62 5.35526C374.62 2.75993 372.516 0.656006 369.921 0.656006C367.325 0.656006 365.221 2.75993 365.221 5.35526C365.221 7.95059 367.325 10.0545 369.921 10.0545Z" fill="white"/>
<path d="M415.739 10.0545C418.334 10.0545 420.438 7.95059 420.438 5.35526C420.438 2.75993 418.334 0.656006 415.739 0.656006C413.143 0.656006 411.039 2.75993 411.039 5.35526C411.039 7.95059 413.143 10.0545 415.739 10.0545Z" fill="white"/>
<path d="M3.19766 55.8718C5.79299 55.8718 7.89692 53.7679 7.89692 51.1725C7.89692 48.5772 5.79299 46.4733 3.19766 46.4733C0.602332 46.4733 -1.5016 48.5772 -1.5016 51.1725C-1.5016 53.7679 0.602332 55.8718 3.19766 55.8718Z" fill="white"/>
<path d="M49.0607 55.8718C51.656 55.8718 53.76 53.7679 53.76 51.1725C53.76 48.5772 51.656 46.4733 49.0607 46.4733C46.4654 46.4733 44.3615 48.5772 44.3615 51.1725C44.3615 53.7679 46.4654 55.8718 49.0607 55.8718Z" fill="white"/>
<path d="M94.8785 55.8718C97.4739 55.8718 99.5778 53.7679 99.5778 51.1725C99.5778 48.5772 97.4739 46.4733 94.8785 46.4733C92.2832 46.4733 90.1793 48.5772 90.1793 51.1725C90.1793 53.7679 92.2832 55.8718 94.8785 55.8718Z" fill="white"/>
<path d="M140.742 55.8718C143.337 55.8718 145.441 53.7679 145.441 51.1725C145.441 48.5772 143.337 46.4733 140.742 46.4733C138.146 46.4733 136.042 48.5772 136.042 51.1725C136.042 53.7679 138.146 55.8718 140.742 55.8718Z" fill="white"/>
<path d="M186.56 55.8718C189.155 55.8718 191.259 53.7679 191.259 51.1725C191.259 48.5772 189.155 46.4733 186.56 46.4733C183.964 46.4733 181.86 48.5772 181.86 51.1725C181.86 53.7679 183.964 55.8718 186.56 55.8718Z" fill="white"/>
<path d="M232.377 55.8718C234.973 55.8718 237.077 53.7679 237.077 51.1725C237.077 48.5772 234.973 46.4733 232.377 46.4733C229.782 46.4733 227.678 48.5772 227.678 51.1725C227.678 53.7679 229.782 55.8718 232.377 55.8718Z" fill="white"/>
<path d="M278.24 55.8718C280.836 55.8718 282.94 53.7679 282.94 51.1725C282.94 48.5772 280.836 46.4733 278.24 46.4733C275.645 46.4733 273.541 48.5772 273.541 51.1725C273.541 53.7679 275.645 55.8718 278.24 55.8718Z" fill="white"/>
<path d="M324.058 55.8718C326.653 55.8718 328.757 53.7679 328.757 51.1725C328.757 48.5772 326.653 46.4733 324.058 46.4733C321.462 46.4733 319.358 48.5772 319.358 51.1725C319.358 53.7679 321.462 55.8718 324.058 55.8718Z" fill="white"/>
<path d="M369.921 55.8718C372.516 55.8718 374.62 53.7679 374.62 51.1725C374.62 48.5772 372.516 46.4733 369.921 46.4733C367.325 46.4733 365.221 48.5772 365.221 51.1725C365.221 53.7679 367.325 55.8718 369.921 55.8718Z" fill="white"/>
<path d="M415.739 55.8718C418.334 55.8718 420.438 53.7679 420.438 51.1725C420.438 48.5772 418.334 46.4733 415.739 46.4733C413.143 46.4733 411.039 48.5772 411.039 51.1725C411.039 53.7679 413.143 55.8718 415.739 55.8718Z" fill="white"/>
<path d="M3.19766 101.735C5.79299 101.735 7.89692 99.6314 7.89692 97.0361C7.89692 94.4407 5.79299 92.3368 3.19766 92.3368C0.602332 92.3368 -1.5016 94.4407 -1.5016 97.0361C-1.5016 99.6314 0.602332 101.735 3.19766 101.735Z" fill="white"/>
<path d="M49.0607 101.735C51.656 101.735 53.76 99.6314 53.76 97.0361C53.76 94.4407 51.656 92.3368 49.0607 92.3368C46.4654 92.3368 44.3615 94.4407 44.3615 97.0361C44.3615 99.6314 46.4654 101.735 49.0607 101.735Z" fill="white"/>
<path d="M94.8785 101.735C97.4739 101.735 99.5778 99.6314 99.5778 97.0361C99.5778 94.4407 97.4739 92.3368 94.8785 92.3368C92.2832 92.3368 90.1793 94.4407 90.1793 97.0361C90.1793 99.6314 92.2832 101.735 94.8785 101.735Z" fill="white"/>
<path d="M140.742 101.735C143.337 101.735 145.441 99.6314 145.441 97.0361C145.441 94.4407 143.337 92.3368 140.742 92.3368C138.146 92.3368 136.042 94.4407 136.042 97.0361C136.042 99.6314 138.146 101.735 140.742 101.735Z" fill="white"/>
<path d="M186.56 101.735C189.155 101.735 191.259 99.6314 191.259 97.0361C191.259 94.4407 189.155 92.3368 186.56 92.3368C183.964 92.3368 181.86 94.4407 181.86 97.0361C181.86 99.6314 183.964 101.735 186.56 101.735Z" fill="white"/>
<path d="M232.377 101.735C234.973 101.735 237.077 99.6314 237.077 97.0361C237.077 94.4407 234.973 92.3368 232.377 92.3368C229.782 92.3368 227.678 94.4407 227.678 97.0361C227.678 99.6314 229.782 101.735 232.377 101.735Z" fill="white"/>
<path d="M278.24 101.735C280.836 101.735 282.94 99.6314 282.94 97.0361C282.94 94.4407 280.836 92.3368 278.24 92.3368C275.645 92.3368 273.541 94.4407 273.541 97.0361C273.541 99.6314 275.645 101.735 278.24 101.735Z" fill="white"/>
<path d="M324.058 101.735C326.653 101.735 328.757 99.6314 328.757 97.0361C328.757 94.4407 326.653 92.3368 324.058 92.3368C321.462 92.3368 319.358 94.4407 319.358 97.0361C319.358 99.6314 321.462 101.735 324.058 101.735Z" fill="white"/>
<path d="M369.921 101.735C372.516 101.735 374.62 99.6314 374.62 97.0361C374.62 94.4407 372.516 92.3368 369.921 92.3368C367.325 92.3368 365.221 94.4407 365.221 97.0361C365.221 99.6314 367.325 101.735 369.921 101.735Z" fill="white"/>
<path d="M415.739 101.735C418.334 101.735 420.438 99.6314 420.438 97.0361C420.438 94.4407 418.334 92.3368 415.739 92.3368C413.143 92.3368 411.039 94.4407 411.039 97.0361C411.039 99.6314 413.143 101.735 415.739 101.735Z" fill="white"/>
<path d="M3.19766 147.553C5.79299 147.553 7.89692 145.449 7.89692 142.853C7.89692 140.258 5.79299 138.154 3.19766 138.154C0.602332 138.154 -1.5016 140.258 -1.5016 142.853C-1.5016 145.449 0.602332 147.553 3.19766 147.553Z" fill="white"/>
<path d="M49.0607 147.553C51.656 147.553 53.76 145.449 53.76 142.853C53.76 140.258 51.656 138.154 49.0607 138.154C46.4654 138.154 44.3615 140.258 44.3615 142.853C44.3615 145.449 46.4654 147.553 49.0607 147.553Z" fill="white"/>
<path d="M94.8785 147.553C97.4739 147.553 99.5778 145.449 99.5778 142.853C99.5778 140.258 97.4739 138.154 94.8785 138.154C92.2832 138.154 90.1793 140.258 90.1793 142.853C90.1793 145.449 92.2832 147.553 94.8785 147.553Z" fill="white"/>
<path d="M140.742 147.553C143.337 147.553 145.441 145.449 145.441 142.853C145.441 140.258 143.337 138.154 140.742 138.154C138.146 138.154 136.042 140.258 136.042 142.853C136.042 145.449 138.146 147.553 140.742 147.553Z" fill="white"/>
<path d="M186.56 147.553C189.155 147.553 191.259 145.449 191.259 142.853C191.259 140.258 189.155 138.154 186.56 138.154C183.964 138.154 181.86 140.258 181.86 142.853C181.86 145.449 183.964 147.553 186.56 147.553Z" fill="white"/>
<path d="M232.377 147.553C234.973 147.553 237.077 145.449 237.077 142.853C237.077 140.258 234.973 138.154 232.377 138.154C229.782 138.154 227.678 140.258 227.678 142.853C227.678 145.449 229.782 147.553 232.377 147.553Z" fill="white"/>
<path d="M278.24 147.553C280.836 147.553 282.94 145.449 282.94 142.853C282.94 140.258 280.836 138.154 278.24 138.154C275.645 138.154 273.541 140.258 273.541 142.853C273.541 145.449 275.645 147.553 278.24 147.553Z" fill="white"/>
<path d="M324.058 147.553C326.653 147.553 328.757 145.449 328.757 142.853C328.757 140.258 326.653 138.154 324.058 138.154C321.462 138.154 319.358 140.258 319.358 142.853C319.358 145.449 321.462 147.553 324.058 147.553Z" fill="white"/>
<path d="M369.921 147.553C372.516 147.553 374.62 145.449 374.62 142.853C374.62 140.258 372.516 138.154 369.921 138.154C367.325 138.154 365.221 140.258 365.221 142.853C365.221 145.449 367.325 147.553 369.921 147.553Z" fill="white"/>
<path d="M415.739 147.553C418.334 147.553 420.438 145.449 420.438 142.853C420.438 140.258 418.334 138.154 415.739 138.154C413.143 138.154 411.039 140.258 411.039 142.853C411.039 145.449 413.143 147.553 415.739 147.553Z" fill="white"/>
<path d="M3.19766 193.416C5.79299 193.416 7.89692 191.312 7.89692 188.717C7.89692 186.122 5.79299 184.018 3.19766 184.018C0.602332 184.018 -1.5016 186.122 -1.5016 188.717C-1.5016 191.312 0.602332 193.416 3.19766 193.416Z" fill="white"/>
<path d="M49.0607 193.416C51.656 193.416 53.76 191.312 53.76 188.717C53.76 186.122 51.656 184.018 49.0607 184.018C46.4654 184.018 44.3615 186.122 44.3615 188.717C44.3615 191.312 46.4654 193.416 49.0607 193.416Z" fill="white"/>
<path d="M94.8785 193.416C97.4739 193.416 99.5778 191.312 99.5778 188.717C99.5778 186.122 97.4739 184.018 94.8785 184.018C92.2832 184.018 90.1793 186.122 90.1793 188.717C90.1793 191.312 92.2832 193.416 94.8785 193.416Z" fill="white"/>
<path d="M140.742 193.416C143.337 193.416 145.441 191.312 145.441 188.717C145.441 186.122 143.337 184.018 140.742 184.018C138.146 184.018 136.042 186.122 136.042 188.717C136.042 191.312 138.146 193.416 140.742 193.416Z" fill="white"/>
<path d="M186.56 193.416C189.155 193.416 191.259 191.312 191.259 188.717C191.259 186.122 189.155 184.018 186.56 184.018C183.964 184.018 181.86 186.122 181.86 188.717C181.86 191.312 183.964 193.416 186.56 193.416Z" fill="white"/>
<path d="M232.377 193.416C234.973 193.416 237.077 191.312 237.077 188.717C237.077 186.122 234.973 184.018 232.377 184.018C229.782 184.018 227.678 186.122 227.678 188.717C227.678 191.312 229.782 193.416 232.377 193.416Z" fill="white"/>
<path d="M278.24 193.416C280.836 193.416 282.94 191.312 282.94 188.717C282.94 186.122 280.836 184.018 278.24 184.018C275.645 184.018 273.541 186.122 273.541 188.717C273.541 191.312 275.645 193.416 278.24 193.416Z" fill="white"/>
<path d="M324.058 193.416C326.653 193.416 328.757 191.312 328.757 188.717C328.757 186.122 326.653 184.018 324.058 184.018C321.462 184.018 319.358 186.122 319.358 188.717C319.358 191.312 321.462 193.416 324.058 193.416Z" fill="white"/>
<path d="M369.921 193.416C372.516 193.416 374.62 191.312 374.62 188.717C374.62 186.122 372.516 184.018 369.921 184.018C367.325 184.018 365.221 186.122 365.221 188.717C365.221 191.312 367.325 193.416 369.921 193.416Z" fill="white"/>
<path d="M415.739 193.416C418.334 193.416 420.438 191.312 420.438 188.717C420.438 186.122 418.334 184.018 415.739 184.018C413.143 184.018 411.039 186.122 411.039 188.717C411.039 191.312 413.143 193.416 415.739 193.416Z" fill="white"/>
</svg>
